<svg width="161" height="32" viewBox="0 0 161 32" fill="none" xmlns="http://www.w3.org/2000/svg">
<g clip-path="url(#clip0_4955_4438)">
<mask id="mask0_4955_4438" style="mask-type:luminance" maskUnits="userSpaceOnUse" x="0" y="0" width="161" height="32">
<path d="M160.095 0H0.896484V32H160.095V0Z" fill="white"/>
</mask>
<g mask="url(#mask0_4955_4438)">
<path d="M14.3156 14.0528C13.7501 14.0528 13.2882 13.5826 13.2882 13.0046C13.2882 12.4267 13.7501 11.9565 14.3156 11.9565C14.4171 11.9565 14.5145 11.971 14.6056 12C14.4171 12.0828 14.2845 12.2734 14.2845 12.4971C14.2845 12.7954 14.5207 13.0378 14.8128 13.0378C15.0323 13.0378 15.2188 12.9011 15.3016 12.7084C15.3286 12.8016 15.3431 12.9011 15.3431 13.0046C15.3431 13.5826 14.8811 14.0528 14.3156 14.0528ZM14.3156 11.2397C13.3627 11.2397 12.5859 12.031 12.5859 13.0046C12.5859 13.9782 13.3627 14.7695 14.3156 14.7695C15.2685 14.7695 16.0453 13.9782 16.0453 13.0046C16.0453 12.031 15.2685 11.2397 14.3156 11.2397Z" fill="#203C8A"/>
<path d="M14.3166 15.482C12.9763 15.482 11.8868 14.3717 11.8868 13.0046C11.8868 11.6374 12.9743 10.5271 14.3166 10.5271C15.6589 10.5271 16.7464 11.6374 16.7464 13.0046C16.7464 14.3717 15.6589 15.482 14.3166 15.482ZM14.3166 9.0957C12.2037 9.0957 10.4844 10.8482 10.4844 13.0025C10.4844 15.1568 12.2016 16.9113 14.3166 16.9113C16.4316 16.9113 18.1488 15.1589 18.1488 13.0025C18.1488 10.8461 16.4316 9.0957 14.3166 9.0957Z" fill="#203C8A"/>
<path d="M14.316 19.772C10.6536 19.772 7.6811 16.7414 7.6811 13.0045C7.6811 9.26757 10.6516 6.23909 14.316 6.23909C17.9804 6.23909 20.9509 9.26757 20.9509 13.0045C20.9509 16.7414 17.9804 19.772 14.316 19.772ZM19.7702 0.994141C19.3124 3.31625 17.2658 5.06664 14.809 5.06664C10.4486 5.06664 6.9043 8.61299 6.9043 12.9714C6.9043 17.3297 10.4506 20.8761 14.809 20.8761C17.2886 20.8761 19.3559 22.6182 19.8178 24.9299C24.491 22.9703 27.7702 18.3551 27.7702 12.9714C27.7702 7.58762 24.4662 2.93925 19.7702 0.994141Z" fill="#F4971A"/>
<path d="M19.9054 24.9197C18.3642 25.566 16.6718 25.9223 14.8966 25.9223C13.1213 25.9223 11.431 25.566 9.88986 24.9197C5.2187 22.9622 1.9375 18.3449 1.9375 12.9612C1.9375 7.57742 5.23942 2.93112 9.9375 0.983946C11.4662 0.350078 13.14 0 14.8966 0C16.6532 0 18.329 0.348006 19.8577 0.986018C19.4 3.30606 17.3533 5.05645 14.8966 5.05645C10.5382 5.05645 6.99188 8.60487 6.99188 12.9612C6.99188 17.3175 10.5403 20.8659 14.8966 20.8659C17.3761 20.8659 19.4455 22.61 19.9054 24.9197Z" fill="#203C8A"/>
<path d="M28.9591 31.5362C28.9591 31.7786 28.7665 32.0002 28.4951 32.0002C28.1947 32.0002 27.9027 31.907 27.652 31.7392C24.7064 29.7755 20.1015 28.5098 14.9291 28.5098C9.75661 28.5098 5.15175 29.7755 2.20612 31.7392C1.95547 31.9049 1.6634 32.0002 1.36303 32.0002C1.00674 32.0002 0.785096 31.6149 0.963242 31.3063L5.16625 24.0271C5.46039 23.5155 6.14812 23.4016 6.59763 23.7868C8.83688 25.7071 11.7494 26.8671 14.9311 26.8671C18.1129 26.8671 21.0254 25.7071 23.2667 23.7868C23.7162 23.4036 24.4019 23.5176 24.6981 24.0271L28.899 31.3063C28.9425 31.3808 28.9632 31.4596 28.9632 31.5362" fill="#203C8A"/>
<path d="M43.0492 9.86868L42.1605 10.5315C41.68 9.89768 41.0979 9.42124 40.4184 9.09809C39.7369 8.77494 38.9912 8.61337 38.1792 8.61337C37.2843 8.61337 36.4599 8.82673 35.7017 9.25345C34.9436 9.68017 34.3553 10.254 33.9368 10.9728C33.5184 11.6936 33.3092 12.5057 33.3092 13.4088C33.3092 14.7677 33.7752 15.8635 34.7095 16.6942C35.6437 17.5248 36.8203 17.9391 38.2413 17.9391C39.8053 17.9391 41.1124 17.326 42.1605 16.1017L43.0492 16.7729C42.492 17.4813 41.798 18.0261 40.9653 18.4135C40.1326 18.7988 39.2046 18.9935 38.1813 18.9935C36.2237 18.9935 34.6805 18.343 33.5515 17.0442C32.6069 15.9464 32.1367 14.7014 32.1367 13.3115C32.1367 11.6812 32.7084 10.3058 33.856 9.18716C35.0016 8.06857 36.435 7.50928 38.1564 7.50928C39.2004 7.50928 40.1429 7.71642 40.9839 8.13072C41.8229 8.54501 42.5127 9.12502 43.0492 9.87282" fill="#203C8A"/>
<path d="M49.0034 11.2855C48.1251 11.2855 47.369 11.6107 46.7372 12.2632C46.1033 12.9178 45.7885 13.7029 45.7885 14.6268C45.7885 15.2254 45.9335 15.7826 46.2214 16.3026C46.5093 16.8204 46.9008 17.2202 47.3918 17.4978C47.8827 17.7775 48.4192 17.9142 49.0013 17.9142C49.5834 17.9142 50.1344 17.7754 50.6233 17.4978C51.1142 17.2202 51.5016 16.8204 51.7853 16.3026C52.0733 15.7847 52.2162 15.2254 52.2162 14.6268C52.2162 13.7029 51.9014 12.9157 51.2675 12.2632C50.6357 11.6107 49.8796 11.2855 49.0013 11.2855M49.0034 10.2456C50.2732 10.2456 51.3255 10.7034 52.1644 11.6231C52.9205 12.4662 53.2996 13.4626 53.2996 14.6123C53.2996 15.7619 52.8977 16.7645 52.0961 17.6262C51.2923 18.4859 50.2628 18.9168 49.0034 18.9168C47.7439 18.9168 46.7061 18.4859 45.9065 17.6262C45.1049 16.7645 44.7051 15.7598 44.7051 14.6123C44.7051 13.4647 45.0842 12.4745 45.8402 11.6314C46.6792 10.7075 47.7336 10.2456 49.0013 10.2456" fill="#203C8A"/>
<path d="M55.2492 15.7781L55.2347 14.8978C55.2181 14.4669 55.2347 14.1003 55.2865 13.7978C55.3963 12.8491 55.6366 12.1552 56.0074 11.7139C56.3699 11.3266 56.7386 11.0283 57.1156 10.8191C57.737 10.5518 58.4475 10.4276 59.2451 10.4421C59.8665 10.4421 60.4424 10.5995 60.9727 10.9123C61.5029 11.2251 61.88 11.6476 62.1057 12.1759C62.3315 12.7062 62.4455 13.5348 62.4455 14.6637V18.9102H61.3911V14.9723C61.3911 14.0195 61.3517 13.3835 61.2709 13.0604C61.1446 12.5156 60.8981 12.1262 60.5273 11.8983C60.1565 11.6704 59.6055 11.5565 58.8784 11.5565C58.2363 11.5565 57.6625 11.7429 57.1612 12.1158C56.6599 12.4866 56.4258 12.9941 56.461 13.6363C56.3657 14.0464 56.3181 14.7983 56.3181 15.8859V18.9123H55.2492V15.7802V15.7781Z" fill="#203C8A"/>
<path d="M67.7303 8.60498C67.2083 8.32326 66.6966 8.30047 66.1953 8.53662C65.7438 8.77691 65.4538 9.44185 65.3233 10.5314V11.358H67.2787V12.2694H65.315V18.9229H64.2461V10.3512C64.2627 9.678 64.3994 9.12699 64.6604 8.69405C65.0623 7.86132 65.7044 7.43046 66.5889 7.39938C67.0405 7.29374 67.5314 7.39938 68.0638 7.72253C67.9789 7.93382 67.867 8.22797 67.7324 8.6029" fill="#203C8A"/>
<path d="M76.6872 13.7547C76.5464 13.1871 76.3413 12.7355 76.0699 12.3958C75.7986 12.0581 75.4402 11.7826 74.9928 11.5755C74.5474 11.3683 74.0772 11.2627 73.5862 11.2627C72.7784 11.2627 72.0844 11.5237 71.5023 12.0457C71.0798 12.4289 70.7628 12.9986 70.5474 13.7567H76.6893L76.6872 13.7547ZM76.6872 15.9732L77.5759 16.4476C77.29 17.0255 76.9544 17.4874 76.5671 17.8396C76.1797 18.1917 75.7468 18.459 75.2641 18.6433C74.7835 18.8256 74.2367 18.9168 73.6318 18.9168C72.2874 18.9168 71.2372 18.4755 70.477 17.5952C69.7188 16.7148 69.3418 15.7205 69.3418 14.6102C69.3418 13.562 69.6629 12.6278 70.305 11.8096C71.117 10.7655 72.2087 10.2456 73.58 10.2456C74.9513 10.2456 76.101 10.778 76.9441 11.8489C77.5427 12.6029 77.841 13.5392 77.8493 14.664H70.4355C70.4542 15.6273 70.7607 16.4165 71.3532 17.0317C71.9456 17.6449 72.6769 17.9535 73.5448 17.9535C73.9674 17.9535 74.3755 17.879 74.7711 17.7319C75.1668 17.5827 75.5065 17.3901 75.784 17.1477C76.0637 16.9074 76.3641 16.5159 76.6914 15.9732" fill="#203C8A"/>
<path d="M79.4199 15.13V14.1377C79.4986 13.6406 79.6146 13.2366 79.7659 12.9259C80.1159 12.0621 80.5882 11.4303 81.1807 11.0285C81.7731 10.6266 82.264 10.4277 82.6556 10.4277C82.9456 10.4277 83.2563 10.523 83.5877 10.7136L83.0388 11.6023C82.5727 11.4303 82.1087 11.5691 81.6509 12.0165C81.191 12.464 80.8741 12.9487 80.698 13.4769C80.5675 13.943 80.5033 14.8192 80.5033 16.1035V18.8959H79.4199V15.132V15.13Z" fill="#203C8A"/>
<path d="M87.8575 7.01611H88.9119L91.1097 8.96536H89.7487L88.4168 7.80534L87.0165 8.96536H85.6017L87.8616 7.01611H87.8575ZM91.4411 13.7546C91.3003 13.187 91.0952 12.7354 90.8238 12.3957C90.5525 12.0581 90.1941 11.7826 89.7487 11.5754C89.3013 11.3683 88.8311 11.2626 88.3401 11.2626C87.5323 11.2626 86.8383 11.5236 86.2562 12.0456C85.8337 12.4289 85.5167 12.9985 85.3013 13.7567H91.4432L91.4411 13.7546ZM91.4411 15.9731L92.3298 16.4475C92.0439 17.0254 91.7063 17.4874 91.321 17.8395C90.9357 18.1917 90.5007 18.4589 90.018 18.6432C89.5374 18.8255 88.9906 18.9167 88.3857 18.9167C87.0413 18.9167 85.9911 18.4755 85.2309 17.5951C84.4727 16.7147 84.0957 15.7204 84.0957 14.6101C84.0957 13.5619 84.4168 12.6277 85.0589 11.8095C85.8709 10.7655 86.9626 10.2455 88.3339 10.2455C89.7052 10.2455 90.8549 10.7779 91.698 11.8488C92.2966 12.6029 92.5949 13.5392 92.6032 14.664H85.1874C85.2081 15.6272 85.5147 16.4164 86.105 17.0316C86.6975 17.6448 87.4287 17.9535 88.2966 17.9535C88.7192 17.9535 89.1273 17.8789 89.5229 17.7318C89.9186 17.5827 90.2583 17.39 90.5359 17.1477C90.8155 16.9074 91.1159 16.5159 91.4432 15.9731" fill="#203C8A"/>
<path d="M94.8937 15.7781L94.8792 14.8978C94.8627 14.4669 94.8792 14.1003 94.931 13.7978C95.0408 12.8491 95.2811 12.1552 95.6519 11.7139C96.0144 11.3266 96.381 11.0283 96.7601 10.8191C97.3816 10.5518 98.0921 10.4276 98.8896 10.4421C99.5131 10.4421 100.087 10.5995 100.617 10.9123C101.147 11.2251 101.524 11.6476 101.75 12.1759C101.976 12.7062 102.09 13.5348 102.09 14.6637V18.9102H101.036V14.9723C101.036 14.0195 100.996 13.3835 100.915 13.0604C100.791 12.5156 100.543 12.1262 100.172 11.8983C99.801 11.6704 99.25 11.5565 98.5229 11.5565C97.8808 11.5565 97.307 11.7429 96.8057 12.1158C96.3044 12.4866 96.0703 12.9941 96.1055 13.6363C96.0102 14.0464 95.9626 14.7983 95.9626 15.8859V18.9123H94.8937V15.7802V15.7781Z" fill="#203C8A"/>
<path d="M112.365 12.1719L111.522 12.6981C110.793 11.7266 109.8 11.2377 108.541 11.2377C107.532 11.2377 106.695 11.5609 106.03 12.2092C105.365 12.8555 105.032 13.6427 105.032 14.5728C105.032 15.1735 105.185 15.7411 105.49 16.2776C105.796 16.812 106.215 17.2242 106.747 17.5142C107.279 17.8063 107.876 17.9513 108.539 17.9513C109.757 17.9513 110.751 17.4707 111.52 16.5075L112.363 17.0565C111.967 17.6489 111.437 18.1067 110.772 18.4298C110.105 18.753 109.347 18.9146 108.493 18.9146C107.194 18.9146 106.113 18.5003 105.253 17.6717C104.394 16.8431 103.963 15.8384 103.963 14.6536C103.963 13.8498 104.166 13.1062 104.57 12.4205C104.974 11.7349 105.527 11.2004 106.227 10.8172C106.927 10.4319 107.714 10.2393 108.586 10.2393C109.129 10.2393 109.653 10.3242 110.163 10.4878C110.672 10.6536 111.105 10.8711 111.462 11.1383C111.818 11.4076 112.118 11.7514 112.365 12.1657" fill="#203C8A"/>
<path d="M114.239 10.6534H115.299V18.9103H114.239V10.6534ZM114.765 7.2583C115.005 7.2583 115.212 7.34323 115.384 7.51309C115.556 7.68502 115.645 7.8901 115.645 8.13039C115.645 8.37068 115.558 8.5799 115.384 8.75183C115.212 8.92376 115.005 9.01076 114.765 9.01076C114.524 9.01076 114.319 8.92583 114.147 8.75183C113.975 8.5799 113.893 8.37068 113.893 8.13039C113.893 7.8901 113.978 7.68502 114.147 7.51309C114.319 7.34323 114.524 7.2583 114.765 7.2583Z" fill="#203C8A"/>
<path d="M121.396 11.2855C120.518 11.2855 119.764 11.6107 119.13 12.2632C118.498 12.9178 118.181 13.7029 118.181 14.6268C118.181 15.2254 118.326 15.7826 118.614 16.3026C118.902 16.8204 119.293 17.2202 119.784 17.4978C120.275 17.7775 120.812 17.9142 121.394 17.9142C123.275 17.7236 124.331 16.6278 124.561 14.6247C124.561 13.7008 124.252 12.9137 123.635 12.2611C123.018 11.6086 122.27 11.2834 121.392 11.2834M121.396 10.2456C122.666 10.2456 123.718 10.7034 124.557 11.6231C125.33 12.4621 125.715 13.4564 125.715 14.6123C125.725 17.4626 125.725 18.9105 125.715 18.954H124.594V17.0794C124.008 18.1731 122.941 18.7842 121.396 18.9168C120.132 18.9168 119.099 18.4859 118.299 17.6262C117.497 16.7645 117.098 15.7598 117.098 14.6123C117.098 13.4647 117.477 12.4745 118.235 11.6314C119.072 10.7075 120.126 10.2456 121.396 10.2456Z" fill="#203C8A"/>
</g>
<path d="M140.589 7.41162L137.241 19.0885H136.655L133.529 11.0905L130.325 19.0885H129.753L126.455 7.41162H128.135L130.262 14.9145L133.229 7.41162H133.815L136.767 14.9145L138.923 7.41162H140.589Z" fill="#203C8A"/>
<path d="M149.68 14.5663C149.663 13.3918 149.346 12.3933 148.712 11.6C147.824 10.4731 146.618 9.90137 145.143 9.90137C143.668 9.90137 142.525 10.4565 141.669 11.5668C141.002 12.4244 140.654 13.4229 140.654 14.5187C140.654 15.6932 141.05 16.7558 141.86 17.6756C142.653 18.6119 143.78 19.0883 145.207 19.0883C145.841 19.0883 146.413 18.993 146.92 18.7859C147.428 18.5953 147.904 18.3094 148.317 17.9449C148.712 17.5637 149.079 17.0728 149.379 16.47L149.491 16.2483L148.159 15.5503L148.033 15.7574C147.732 16.2649 147.447 16.6461 147.192 16.8677C146.923 17.0894 146.62 17.2634 146.256 17.4063C145.891 17.5326 145.51 17.6134 145.112 17.6134C144.304 17.6134 143.652 17.3276 143.113 16.7558C142.622 16.2483 142.336 15.6145 142.272 14.8356H149.682V14.5663H149.68ZM145.158 11.4239C145.601 11.4239 146.046 11.5192 146.459 11.7098C146.854 11.9003 147.188 12.1531 147.442 12.4721C147.633 12.7103 147.79 13.0272 147.919 13.4084H142.461C142.668 12.8532 142.92 12.441 143.237 12.1386C143.776 11.6621 144.412 11.4239 145.158 11.4239Z" fill="#203C8A"/>
<path d="M158.786 11.2499C157.914 10.3447 156.834 9.90137 155.612 9.90137C154.914 9.90137 154.264 10.0443 153.678 10.3302C153.282 10.5207 152.901 10.79 152.551 11.1235V6.91846H150.98V14.993L150.997 15.0241C151.076 15.7864 151.362 16.5632 151.838 17.34L151.869 17.3876C152.377 17.9594 152.963 18.4027 153.582 18.672C154.202 18.9412 154.867 19.0842 155.581 19.0842C156.818 19.0842 157.897 18.6243 158.769 17.7357C159.641 16.847 160.101 15.7678 160.101 14.5145C160.101 13.2613 159.658 12.1344 158.784 11.2457L158.786 11.2499ZM158.516 14.471C158.516 15.0262 158.374 15.5337 158.104 16.0267C157.835 16.5031 157.454 16.8843 157.008 17.1536C156.549 17.4229 156.041 17.5492 155.486 17.5492C154.645 17.5492 153.947 17.2634 153.361 16.6606C152.758 16.0743 152.472 15.3431 152.472 14.4399C152.472 13.8682 152.615 13.3462 152.868 12.8843C153.12 12.4244 153.501 12.0598 153.978 11.7905C154.454 11.5213 154.962 11.3783 155.5 11.3783C156.039 11.3783 156.532 11.5213 156.992 11.774C157.452 12.0433 157.816 12.441 158.102 12.9319C158.371 13.4229 158.514 13.9469 158.514 14.471H158.516Z" fill="#203C8A"/>
</g>
<defs>
<clipPath id="clip0_4955_4438">
<rect width="159.207" height="32" fill="white" transform="translate(0.896484)"/>
</clipPath>
</defs>
</svg>
