<?xml version="1.0" encoding="utf-8"?>
<!-- Generator: Adobe Illustrator 25.1.0, SVG Export Plug-In . SVG Version: 6.00 Build 0)  -->
<svg version="1.1" id="Camada_1" xmlns="http://www.w3.org/2000/svg" xmlns:xlink="http://www.w3.org/1999/xlink" x="0px" y="0px"
	 viewBox="0 0 710 258" style="enable-background:new 0 0 710 258;" xml:space="preserve">
<style type="text/css">
	.st0{fill:#979797;}
	.st1{fill:#424242;}
	.st2{fill:#008C95;}
	.st3{fill:#FFFFFF;}
	.st4{fill:#BFBFBF;}
	.st5{opacity:0.5;fill:#FFFFFF;enable-background:new    ;}
	.st6{opacity:0.8;fill:#FFFFFF;enable-background:new    ;}
	.st7{opacity:0.1;fill:#FFFFFF;enable-background:new    ;}
	.st8{fill:#6F6F6F;}
	.st9{fill:#595959;}
</style>
<g id="Camada_2_1_">
	<g id="Camada_1-2">
		<path id="cinza5" class="st0" d="M154.4,0h401.2c5.5,0,10,4.5,10,10v228.8l0,0H144.4l0,0V10C144.4,4.5,148.9,0,154.4,0z"/>
		<rect id="cinza9" x="230" y="15.9" class="st1" width="323" height="208"/>
		<rect id="corelos1" x="230" y="41.9" class="st2" width="323" height="156"/>
		<rect id="branco" x="157" y="15.9" class="st3" width="73" height="208"/>
		<path id="branco-2" class="st3" d="M387.1,158.4l-0.1-4c0.6,0,1.3,0,1.9-0.1l0.3,4C388.5,158.4,387.8,158.4,387.1,158.4z"/>
		<path id="branco-3" class="st3" d="M383.9,158.3c-0.7,0-1.4-0.1-2.1-0.2l0.5-4c0.6,0.1,1.2,0.1,1.9,0.2L383.9,158.3z"/>
		<path id="branco-4" class="st3" d="M392.3,158l-0.6-4c0.6-0.1,1.2-0.2,1.9-0.3l0.8,3.9C393.7,157.8,393,157.9,392.3,158z"/>
		<path id="branco-5" class="st3" d="M378.7,157.6c-0.7-0.1-1.3-0.3-2-0.5l1-3.9c0.6,0.2,1.2,0.3,1.8,0.4L378.7,157.6z"/>
		<path id="branco-6" class="st3" d="M397.4,156.8l-1.1-3.8c0.6-0.2,1.2-0.4,1.8-0.6l1.4,3.8C398.8,156.4,398.1,156.6,397.4,156.8z"
			/>
		<path id="branco-7" class="st3" d="M373.6,156.2c-0.7-0.2-1.3-0.5-2-0.8l1.5-3.7c0.6,0.2,1.2,0.5,1.8,0.7L373.6,156.2z"/>
		<path id="branco-8" class="st3" d="M402.3,155l-1.6-3.6c0.6-0.3,1.1-0.5,1.7-0.8l1.9,3.6C403.6,154.4,403,154.7,402.3,155z"/>
		<path id="branco-9" class="st3" d="M368.8,154.1c-0.6-0.3-1.2-0.7-1.8-1l2-3.4c0.5,0.3,1.1,0.6,1.7,0.9L368.8,154.1z"/>
		<path id="branco-10" class="st3" d="M407,152.5l-2.1-3.4c0.5-0.3,1.1-0.7,1.6-1l2.3,3.3C408.1,151.8,407.6,152.1,407,152.5z"/>
		<path id="branco-11" class="st3" d="M364.3,151.4c-0.6-0.4-1.1-0.8-1.7-1.3l2.5-3.1c0.5,0.4,1,0.8,1.5,1.1L364.3,151.4z"/>
		<path id="branco-12" class="st3" d="M411.2,149.4l-2.6-3.1c0.5-0.4,1-0.8,1.4-1.2l2.7,2.9C412.3,148.5,411.8,149,411.2,149.4z"/>
		<path id="branco-13" class="st3" d="M360.3,148.1c-0.5-0.5-1-1-1.5-1.5l2.9-2.8c0.4,0.4,0.9,0.9,1.4,1.3L360.3,148.1z"/>
		<path id="branco-14" class="st3" d="M415,145.8l-3-2.7c0.4-0.5,0.8-0.9,1.2-1.4l3.1,2.5C415.9,144.7,415.5,145.3,415,145.8z"/>
		<path id="branco-15" class="st3" d="M356.7,144.2c-0.4-0.5-0.9-1.1-1.3-1.7l3.2-2.4c0.4,0.5,0.8,1,1.1,1.5L356.7,144.2z"/>
		<path id="branco-16" class="st3" d="M418.3,141.7l-3.3-2.3c0.4-0.5,0.7-1,1-1.6l3.4,2.1C419,140.5,418.7,141.1,418.3,141.7z"/>
		<path id="branco-17" class="st3" d="M353.6,140c-0.4-0.6-0.7-1.2-1-1.8l3.5-1.9c0.3,0.6,0.6,1.1,0.9,1.6L353.6,140z"/>
		<path id="branco-18" class="st3" d="M420.9,137.1l-3.6-1.8c0.3-0.6,0.5-1.1,0.8-1.7l3.7,1.6C421.5,135.9,421.2,136.5,420.9,137.1z
			"/>
		<path id="branco-19" class="st3" d="M351.2,135.3c-0.3-0.6-0.5-1.3-0.8-1.9l3.8-1.4c0.2,0.6,0.5,1.2,0.7,1.7L351.2,135.3z"/>
		<path id="branco-20" class="st3" d="M423,132.3l-3.8-1.3c0.2-0.6,0.4-1.2,0.6-1.8l3.9,1.1C423.4,131,423.2,131.6,423,132.3z"/>
		<path id="branco-21" class="st3" d="M349.4,130.4c-0.2-0.7-0.4-1.4-0.5-2l3.9-0.9c0.1,0.6,0.3,1.2,0.5,1.8L349.4,130.4z"/>
		<path id="branco-22" class="st3" d="M424.3,127.2l-3.9-0.8c0.1-0.6,0.2-1.2,0.3-1.9l4,0.5C424.5,125.8,424.4,126.5,424.3,127.2z"
			/>
		<path id="branco-23" class="st3" d="M348.4,125.2c-0.1-0.7-0.2-1.4-0.2-2.1l4-0.3c0,0.6,0.1,1.2,0.2,1.9L348.4,125.2z"/>
		<path id="branco-24" class="st3" d="M424.9,122l-4-0.2c0-0.6,0-1.2,0-1.9v-0.2h4v0.1C425,120.6,425,121.3,424.9,122z"/>
		<path id="branco-25" class="st3" d="M349,120h-1c0-0.7,0-1.4,0-2l4,0.2c0,0.6,0,1.2,0,1.8L349,120z"/>
		<path id="branco-26" class="st3" d="M420.9,116.9c-0.1-0.6-0.1-1.3-0.2-1.9l4-0.6c0.1,0.7,0.2,1.4,0.2,2.1L420.9,116.9z"/>
		<path id="branco-27" class="st3" d="M352.3,115.3l-4-0.5c0.1-0.7,0.2-1.4,0.3-2.1l3.9,0.7C352.5,114,352.4,114.7,352.3,115.3z"/>
		<path id="branco-28" class="st3" d="M420.2,112.3c-0.1-0.6-0.3-1.2-0.5-1.8l3.9-1.1c0.2,0.7,0.4,1.3,0.5,2L420.2,112.3z"/>
		<path id="branco-29" class="st3" d="M353.2,110.7l-3.9-1.1c0.2-0.7,0.4-1.3,0.6-2l3.8,1.3C353.6,109.5,353.4,110.1,353.2,110.7z"
			/>
		<path id="branco-30" class="st3" d="M418.8,107.8c-0.2-0.6-0.5-1.2-0.7-1.7l3.7-1.6c0.3,0.6,0.5,1.3,0.8,1.9L418.8,107.8z"/>
		<path id="branco-31" class="st3" d="M354.8,106.2l-3.7-1.6c0.3-0.7,0.6-1.3,0.9-1.9l3.6,1.8C355.3,105.1,355.1,105.7,354.8,106.2z
			"/>
		<path id="branco-32" class="st3" d="M416.9,103.5c-0.3-0.6-0.6-1.1-0.9-1.6l3.4-2.1c0.4,0.6,0.7,1.2,1,1.8L416.9,103.5z"/>
		<path id="branco-33" class="st3" d="M357,102.1l-3.5-2.1c0.4-0.6,0.8-1.2,1.1-1.8l3.3,2.2C357.6,101,357.3,101.5,357,102.1z"/>
		<path id="branco-34" class="st3" d="M414.3,99.5c-0.4-0.5-0.8-1-1.1-1.5l3.1-2.5c0.4,0.6,0.9,1.1,1.3,1.7L414.3,99.5z"/>
		<path id="branco-35" class="st3" d="M359.7,98.2l-3.1-2.5c0.4-0.5,0.9-1.1,1.4-1.6l3,2.7C360.5,97.2,360.1,97.7,359.7,98.2z"/>
		<path id="branco-36" class="st3" d="M411.3,95.9c-0.4-0.4-0.9-0.9-1.3-1.3l2.7-2.9c0.5,0.5,1,1,1.5,1.5L411.3,95.9z"/>
		<path id="branco-37" class="st3" d="M362.9,94.8l-2.7-2.9c0.5-0.5,1-0.9,1.6-1.4l2.6,3.1C363.8,93.9,363.4,94.3,362.9,94.8z"/>
		<path id="branco-38" class="st3" d="M407.8,92.8c-0.5-0.4-1-0.8-1.5-1.1l2.3-3.3c0.6,0.4,1.1,0.8,1.7,1.2L407.8,92.8z"/>
		<path id="branco-39" class="st3" d="M366.5,91.8l-2.3-3.3c0.6-0.4,1.2-0.8,1.7-1.2l2.1,3.4C367.6,91.1,367,91.4,366.5,91.8z"/>
		<path id="branco-40" class="st3" d="M403.9,90.1c-0.5-0.3-1.1-0.6-1.6-0.9l1.8-3.6c0.6,0.3,1.2,0.7,1.9,1L403.9,90.1z"/>
		<path id="branco-41" class="st3" d="M370.5,89.3l-1.9-3.5c0.6-0.3,1.3-0.6,1.9-0.9l1.6,3.7C371.7,88.8,371.1,89,370.5,89.3z"/>
		<path id="branco-42" class="st3" d="M399.7,88c-0.6-0.2-1.2-0.5-1.8-0.7l1.3-3.8c0.7,0.2,1.3,0.5,2,0.8L399.7,88z"/>
		<path id="branco-43" class="st3" d="M374.9,87.4l-1.4-3.8c0.6-0.2,1.3-0.4,2-0.7l1.1,3.8C376,87,375.4,87.2,374.9,87.4z"/>
		<path id="branco-44" class="st3" d="M395.2,86.5c-0.6-0.2-1.2-0.3-1.8-0.4l0.8-3.9c0.7,0.1,1.4,0.3,2,0.5L395.2,86.5z"/>
		<path id="branco-45" class="st3" d="M379.4,86.1l-0.8-3.9c0.7-0.1,1.4-0.3,2.1-0.4l0.6,4C380.6,85.9,380,86,379.4,86.1z"/>
		<path id="branco-46" class="st3" d="M390.6,85.7c-0.6-0.1-1.2-0.1-1.9-0.2l0.3-4c0.7,0,1.4,0.1,2.1,0.2L390.6,85.7z"/>
		<path id="branco-47" class="st3" d="M384,85.5l-0.3-4c0.7,0,1.4-0.1,2.1-0.1l0.1,4C385.3,85.4,384.7,85.4,384,85.5z"/>
		<path id="branco-48" class="st3" d="M386.5,89.4c-16.8,0-30.5,13.7-30.5,30.5s13.7,30.5,30.5,30.5s30.5-13.7,30.5-30.5
			S403.3,89.4,386.5,89.4z M380.8,134.3v-28.8l17.5,14.4L380.8,134.3z"/>
		<rect id="cinza3" x="183" y="33.5" class="st4" width="36" height="3"/>
		<rect id="cinza3-2" x="183" y="49.4" class="st4" width="36" height="3"/>
		<rect id="cinza3-3" x="183" y="65.3" class="st4" width="36" height="3"/>
		<rect id="cinza3-4" x="183" y="81.2" class="st4" width="36" height="3"/>
		<rect id="cinza3-5" x="183" y="97.1" class="st4" width="36" height="3"/>
		<rect id="cinza3-6" x="183" y="113" class="st4" width="36" height="3"/>
		<g id="cinza9-2">
			<path class="st1" d="M708.5,258H1.5c-0.8,0-1.5-0.9-1.5-2s0.7-2,1.5-2h707c0.8,0,1.5,0.9,1.5,2S709.3,258,708.5,258z"/>
		</g>
		<rect id="corelos2" x="165.5" y="29.5" class="st2" width="11" height="11"/>
		<rect id="corelos2-2" x="165.5" y="45.4" class="st2" width="11" height="11"/>
		<rect id="corelos2-3" x="165.5" y="61.3" class="st2" width="11" height="11"/>
		<rect id="corelos2-4" x="165.5" y="77.2" class="st2" width="11" height="11"/>
		<rect id="corelos2-5" x="165.5" y="93.1" class="st2" width="11" height="11"/>
		<rect id="corelos2-6" x="165.5" y="109" class="st2" width="11" height="11"/>
		<rect id="branco-49" x="165" y="29" class="st5" width="12" height="12"/>
		<rect id="branco-50" x="165" y="44.9" class="st6" width="12" height="12"/>
		<rect id="branco-51" x="165" y="60.8" class="st5" width="12" height="12"/>
		<rect id="branco-52" x="165" y="108.5" class="st6" width="12" height="12"/>
		<rect id="branco-53" x="165" y="92.6" class="st7" width="12" height="12"/>
		<rect id="branco-54" x="165" y="76.7" class="st7" width="12" height="12"/>
		<path class="st8" d="M81,239h548l0,0v6c0,5.5-4.5,10-10,10H91c-5.5,0-10-4.5-10-10V239L81,239z"/>
		<path id="cinza8" class="st9" d="M318.1,238.8h73.9l0,0l0,0c0,4.4-3.6,8-8,8h-57.9C321.6,246.8,318.1,243.2,318.1,238.8
			L318.1,238.8L318.1,238.8z"/>
	</g>
</g>
</svg>
