<svg width="122" height="115" viewBox="0 0 122 115" fill="none" xmlns="http://www.w3.org/2000/svg">
<path d="M22.7141 21.1661L78.1767 26.0722C87.1838 26.8691 93.8316 34.8083 93.0347 43.8154L88.1286 99.278C87.3317 108.285 79.3942 114.935 70.3854 114.138L14.9244 109.232C5.91565 108.435 -0.732101 100.495 0.064775 91.4883L4.9709 36.0258C5.76777 27.017 13.725 20.3709 22.7141 21.1661Z" fill="#074AA0"/>
<path d="M102.503 46.3093L120 37.0704L100.027 36.2111L116.783 11.881L92.8375 20.9735L88.5179 2.10156L80.2715 15.8456" stroke="#EA9245" stroke-width="3" stroke-linecap="round" stroke-linejoin="round"/>
<path d="M66.6802 56.1785L66.6794 56.1795L58.6455 65.6941L57.3552 67.2222L58.8833 68.5125L68.3979 76.5465C71.4929 79.1598 71.8842 83.8119 69.2725 86.901L69.2708 86.9029C66.6626 89.9958 62.0068 90.3886 58.9171 87.7765L58.9162 87.7757L49.4016 79.7417L47.8735 78.4514L46.5832 79.9795L38.5492 89.4942L38.5484 89.4951C35.9401 92.588 31.2844 92.9809 28.1947 90.3687L28.1928 90.3671C25.1004 87.7593 24.7066 83.1074 27.32 80.0124L35.354 70.4978L36.6443 68.9697L35.1162 67.6794L25.6015 59.6455L25.6006 59.6447C22.5077 57.0364 22.1148 52.3806 24.727 49.291L24.7278 49.29C27.3366 46.2004 31.9937 45.8075 35.0832 48.4163L44.5979 56.4502L46.126 57.7405L47.4163 56.2124L55.4502 46.6978C58.059 43.6082 62.7161 43.2153 65.8057 45.8241L65.8066 45.8249C68.8996 48.4331 69.2924 53.0889 66.6802 56.1785Z" fill="white" stroke="#074AA0" stroke-width="4"/>
</svg>
