<svg width="122" height="115" viewBox="0 0 122 115" fill="none" xmlns="http://www.w3.org/2000/svg">
<path d="M22.7141 21.0645L78.1767 25.9707C87.1838 26.7675 93.8316 34.7067 93.0347 43.7139L88.1286 99.1764C87.3317 108.184 79.3942 114.833 70.3854 114.036L14.9244 109.13C5.91565 108.333 -0.732101 100.394 0.064775 91.3868L4.9709 35.9242C5.76777 26.9154 13.725 20.2693 22.7141 21.0645Z" fill="#B1E4E3"/>
<path d="M102.503 46.2077L120 36.9689L100.027 36.1096L116.783 11.7794L92.8375 20.872L88.5179 2L80.2715 15.7441" stroke="#008C95" stroke-width="3" stroke-linecap="round" stroke-linejoin="round"/>
<path d="M66.6802 56.0809L66.6794 56.0818L58.6455 65.5965L57.3552 67.1246L58.8833 68.4149L68.3979 76.4488C71.4929 79.0622 71.8842 83.7142 69.2725 86.8033L69.2709 86.8052C66.6626 89.8982 62.0068 90.291 58.9171 87.6788L58.9162 87.678L49.4016 79.6441L47.8735 78.3538L46.5832 79.8819L38.5492 89.3965L38.5484 89.3975C35.9401 92.4904 31.2844 92.8832 28.1947 90.2711L28.1928 90.2694C25.1004 87.6616 24.7066 83.0098 27.32 79.9148L35.354 70.4002L36.6443 68.8721L35.1162 67.5818L25.6015 59.5478L25.6006 59.547C22.5077 56.9387 22.1148 52.283 24.727 49.1933L24.7278 49.1924C27.3366 46.1028 31.9937 45.7098 35.0832 48.3186L44.5979 56.3526L46.126 57.6429L47.4163 56.1148L55.4502 46.6001C58.059 43.5106 62.7161 43.1176 65.8057 45.7264L65.8066 45.7272C68.8996 48.3355 69.2924 52.9912 66.6802 56.0809Z" fill="#0B929A" stroke="#B1E4E3" stroke-width="4"/>
</svg>
