<svg width="24" height="24" viewBox="0 0 24 24" fill="none" xmlns="http://www.w3.org/2000/svg">
<path fill-rule="evenodd" clip-rule="evenodd" d="M6.00001 18.4057C5.99932 18.7449 6.06529 19.081 6.19421 19.3948C6.32383 19.7103 6.51454 19.9971 6.75534 20.2387C6.99614 20.4803 7.28229 20.6719 7.59738 20.8026C7.91247 20.9332 8.25028 21.0003 8.59138 21C9.25758 20.9865 9.89192 20.7123 10.3582 20.2363C10.8245 19.7603 11.0857 19.1205 11.0855 18.4542V16.4198C11.0855 15.9103 11.2197 15.4097 11.4744 14.9684C11.7291 14.527 12.0954 14.1605 12.5366 13.9056L13.1507 13.5511C13.0894 13.5758 13.0282 13.6007 12.9671 13.6259C13.0349 13.598 13.1027 13.5703 13.1708 13.543L17.295 11.1615C17.6965 10.9298 18.0299 10.5966 18.2617 10.1952C18.4936 9.79377 18.6156 9.33841 18.6156 8.87488C18.6156 8.41135 18.4936 7.95599 18.2617 7.5546C18.0299 7.1532 17.6965 6.81992 17.295 6.58826L9.95995 2.35369C9.5586 2.12197 9.10334 1.99998 8.6399 2C8.17646 2.00002 7.72117 2.12203 7.31983 2.35378C6.9185 2.58552 6.58523 2.91883 6.35355 3.32021C6.12187 3.72158 5.99994 4.17687 6 4.64031V18.4002C6 18.4015 6.00001 18.4028 6.00001 18.4041M12.3353 11.8314L7.9 14.1629V4.64005C7.89998 4.51014 7.93416 4.38253 7.99909 4.27004C8.06401 4.15757 8.15743 4.06413 8.26995 3.99916C8.38243 3.93421 8.51004 3.9 8.63994 3.9C8.76983 3.9 8.89748 3.93421 9.00998 3.99917L16.3455 8.23397C16.458 8.2989 16.5515 8.39232 16.6164 8.50482C16.6814 8.61736 16.7156 8.745 16.7156 8.87488C16.7156 9.00477 16.6814 9.13241 16.6164 9.24495C16.5515 9.35744 16.4574 9.45119 16.3449 9.51612L12.3353 11.8314Z" fill="black"/>
</svg>
