<svg width="24" height="24" viewBox="0 0 24 24" fill="none" xmlns="http://www.w3.org/2000/svg">
<mask id="mask0_9306_1800" style="mask-type:alpha" maskUnits="userSpaceOnUse" x="0" y="0" width="24" height="24">
<rect width="24" height="24" fill="#D9D9D9"/>
</mask>
<g mask="url(#mask0_9306_1800)">
<path d="M6 22C5.45 22 4.97917 21.8042 4.5875 21.4125C4.19583 21.0208 4 20.55 4 20V4C4 3.45 4.19583 2.97917 4.5875 2.5875C4.97917 2.19583 5.45 2 6 2H13.175C13.4417 2 13.6958 2.05 13.9375 2.15C14.1792 2.25 14.3917 2.39167 14.575 2.575L19.425 7.425C19.6083 7.60833 19.75 7.82083 19.85 8.0625C19.95 8.30417 20 8.55833 20 8.825V11.6C20 11.8833 19.9042 12.1208 19.7125 12.3125C19.5208 12.5042 19.2833 12.6 19 12.6C18.7167 12.6 18.4792 12.5042 18.2875 12.3125C18.0958 12.1208 18 11.8833 18 11.6V9H15C14.45 9 13.9792 8.80417 13.5875 8.4125C13.1958 8.02083 13 7.55 13 7V4H6V20H12.2C12.4833 20 12.7208 20.0958 12.9125 20.2875C13.1042 20.4792 13.2 20.7167 13.2 21C13.2 21.2833 13.1042 21.5208 12.9125 21.7125C12.7208 21.9042 12.4833 22 12.2 22H6Z" fill="#1C1B1F"/>
</g>
<path d="M14.4448 17.8765C16.9334 17.3145 17.3189 16.929 17.8809 14.4403C17.9067 14.3266 18.0079 14.2456 18.1249 14.2456C18.2419 14.2456 18.3431 14.3266 18.3689 14.4403C18.9311 16.929 19.3164 17.3145 21.805 17.8765C21.919 17.9025 22 18.0035 22 18.1205C22 18.2375 21.919 18.3385 21.805 18.3645C19.3164 18.9267 18.9311 19.3122 18.3689 21.8006C18.3431 21.9143 18.2419 21.9953 18.1249 21.9953C18.0079 21.9953 17.9067 21.9143 17.8809 21.8006C17.3187 19.3122 16.9334 18.9267 14.4448 18.3645C14.3308 18.3385 14.25 18.2375 14.25 18.1205C14.25 18.0035 14.331 17.9025 14.4448 17.8765Z" fill="#1C1B1F"/>
<path d="M12.1948 14.0019C13.5178 13.7032 13.7035 13.5174 14.0023 12.1947C14.0283 12.0807 14.1293 12 14.2463 12C14.3633 12 14.4643 12.0807 14.4903 12.1947C14.789 13.5174 14.9747 13.7032 16.2974 14.0019C16.4114 14.0279 16.4922 14.1289 16.4922 14.2459C16.4922 14.3629 16.4114 14.4639 16.2974 14.4899C14.9747 14.7886 14.789 14.9744 14.4903 16.2973C14.4643 16.4111 14.3633 16.4921 14.2463 16.4921C14.1293 16.4921 14.0283 16.4111 14.0023 16.2973C13.7035 14.9744 13.5178 14.7886 12.1948 14.4899C12.0811 14.4639 12.0001 14.3629 12.0001 14.2459C12.0001 14.1289 12.0811 14.0279 12.1948 14.0019Z" fill="#1C1B1F"/>
</svg>
