<svg width="18" height="20" viewBox="0 0 18 20" fill="none" xmlns="http://www.w3.org/2000/svg">
<path d="M11.176 0C11.4427 0 11.6971 0.0504056 11.9387 0.150391C12.1804 0.250391 12.3931 0.391862 12.5764 0.575195L17.427 5.4248C17.6103 5.60811 17.7518 5.82089 17.8518 6.0625C17.9518 6.30414 18.0012 6.55856 18.0012 6.8252V18C18.0012 18.5499 17.8058 19.0205 17.4143 19.4121C17.0226 19.8038 16.5512 20 16.0012 20H4.00122C3.45123 20 2.98078 19.8038 2.58911 19.4121C2.19744 19.0204 2.00122 18.55 2.00122 18V16.499C2.00145 15.9469 2.44906 15.499 3.00122 15.499C3.55322 15.4992 4.00099 15.947 4.00122 16.499V18H16.0012V7H12.0012C11.7182 6.99995 11.4809 6.90425 11.2893 6.71289C11.0976 6.52122 11.0012 6.28333 11.0012 6V2H4.00122V4.50098L3.99536 4.60254C3.94435 5.10688 3.51898 5.5008 3.00122 5.50098C2.449 5.50098 2.00135 5.05315 2.00122 4.50098V2C2.00122 1.45 2.19744 0.979556 2.58911 0.587891C2.98078 0.196235 3.45123 1.07595e-05 4.00122 0H11.176Z" fill="#0F8DDE"/>
<path d="M2.24146 11.8879C4.52278 11.3727 4.87615 11.0194 5.39131 8.73808C5.41492 8.63382 5.50773 8.55957 5.61498 8.55957C5.72222 8.55957 5.81504 8.63382 5.83864 8.73808C6.35403 11.0194 6.70717 11.3727 8.98849 11.8879C9.09299 11.9117 9.16724 12.0043 9.16724 12.1115C9.16724 12.2188 9.09299 12.3113 8.98849 12.3352C6.70717 12.8506 6.35403 13.2039 5.83864 15.485C5.81504 15.5892 5.72222 15.6635 5.61498 15.6635C5.50773 15.6635 5.41492 15.5892 5.39131 15.485C4.87592 13.2039 4.52278 12.8506 2.24146 12.3352C2.13696 12.3113 2.06294 12.2188 2.06294 12.1115C2.06294 12.0043 2.13719 11.9117 2.24146 11.8879Z" fill="#0F8DDE"/>
<path d="M0.17848 8.33461C1.39121 8.06077 1.56148 7.8905 1.83533 6.67803C1.85916 6.57353 1.95175 6.49951 2.05899 6.49951C2.16624 6.49951 2.25882 6.57353 2.28266 6.67803C2.55651 7.8905 2.72678 8.06077 3.93928 8.33461C4.04378 8.35844 4.1178 8.45102 4.1178 8.55827C4.1178 8.66551 4.04378 8.75809 3.93928 8.78193C2.72678 9.05577 2.55651 9.22603 2.28266 10.4387C2.25882 10.543 2.16624 10.6173 2.05899 10.6173C1.95175 10.6173 1.85916 10.543 1.83533 10.4387C1.56148 9.22603 1.39121 9.05577 0.17848 8.78193C0.074211 8.75809 -3.77938e-05 8.66551 -3.77938e-05 8.55827C-3.77938e-05 8.45102 0.074211 8.35844 0.17848 8.33461Z" fill="#0F8DDE"/>
</svg>
