<svg width="24" height="24" viewBox="0 0 24 24" fill="none" xmlns="http://www.w3.org/2000/svg">
<path d="M19.5367 20.2414C19.553 20.1653 19.562 20.1056 19.5784 20.0484C19.7901 19.3231 20.0003 18.5979 20.217 17.8742C20.2497 17.7663 20.2987 17.6543 20.369 17.5676C20.8547 16.9666 21.1565 16.2855 21.3102 15.53C21.4753 14.7164 21.4238 13.9274 21.172 13.1335C20.9414 12.4049 20.5489 11.7835 20.0207 11.2537C19.4753 10.7075 18.8253 10.3101 18.0829 10.0762C18.0248 10.0583 17.9659 10.0394 17.9079 10.0198C17.5195 9.88981 17.329 9.61753 17.3086 9.20952C17.2971 8.97894 17.2758 8.74755 17.2341 8.52024C17.1295 7.9536 16.9512 7.40495 16.6389 6.92172C15.8588 5.71649 14.7787 4.91682 13.3445 4.68052C11.6667 4.40333 10.2481 4.93399 9.06656 6.14331C8.74359 6.47446 8.49256 6.85058 8.28733 7.26104C8.2579 7.31991 8.235 7.38206 8.19984 7.46382C8.35847 7.48018 8.49175 7.50062 8.62503 7.50634C9.98316 7.56439 11.2448 7.96995 12.4517 8.57257C13.7313 9.21116 14.8278 10.0869 15.7558 11.1694C16.4255 11.9511 16.9373 12.8326 17.329 13.7851C17.8237 14.9855 18.1704 16.2299 18.4394 17.4973C18.4574 17.5823 18.4843 17.6649 18.513 17.7704C18.8678 17.7164 19.2088 17.6649 19.5825 17.6077C19.5694 17.6984 19.5669 17.7761 19.5465 17.8481C19.3969 18.3787 19.2423 18.9078 19.091 19.4384C18.8817 20.171 18.6732 20.9045 18.4639 21.6371C18.459 21.6551 18.4443 21.6714 18.4312 21.6935C17.6274 20.5243 16.8261 19.3599 16.0117 18.1751C16.3135 18.1244 16.6037 18.0762 16.8997 18.0271C16.8997 17.9707 16.9054 17.9372 16.8989 17.9061C16.6234 16.5832 16.2456 15.2904 15.6994 14.0533C15.3732 13.3133 14.9341 12.638 14.3928 12.037C13.0845 10.5848 11.4648 9.6625 9.56124 9.23569C9.04121 9.11876 8.51055 9.0648 7.97826 9.0975C6.76731 9.17191 5.62831 9.48017 4.63567 10.2112C3.92595 10.7336 3.35522 11.3812 3.02489 12.2054C2.27346 14.0836 2.48769 15.8375 3.77877 17.4188C4.60706 18.4343 5.68718 19.0361 6.98726 19.1948C8.28324 19.3526 9.47539 19.0419 10.5375 18.27C10.6741 18.1702 10.8082 18.0664 10.9496 17.9593C10.9235 17.9069 10.9055 17.8644 10.8809 17.8252C10.4525 17.1212 10.0232 16.418 9.59477 15.7148C9.58414 15.6976 9.57596 15.6788 9.56533 15.6608C9.48602 15.5308 9.47539 15.5259 9.34129 15.5938C9.14669 15.6919 8.95454 15.7941 8.75994 15.8922C8.70189 15.9217 8.64056 15.9446 8.56125 15.9781C8.52854 14.5439 8.49747 13.1384 8.46476 11.7034C9.59967 12.5995 10.7068 13.4744 11.8327 14.364C11.5285 14.5186 11.2407 14.6641 10.9406 14.8162C10.9799 14.8947 11.0052 14.956 11.0396 15.0124C11.5163 15.7827 11.9823 16.5594 12.477 17.3182C12.8818 17.9388 13.4173 18.4294 14.0837 18.7663C14.6479 19.0517 15.2415 19.2397 15.8736 19.2961C15.9619 19.3043 16.0273 19.3297 16.0788 19.4049C16.4067 19.8898 16.7378 20.3738 17.0665 20.8579C17.0739 20.8685 17.0747 20.8832 17.0861 20.9249C16.1499 20.9928 15.2391 20.9053 14.3535 20.6175C13.4623 20.3289 12.6561 19.8849 11.9913 19.2062C11.9325 19.243 11.8891 19.2626 11.8548 19.2929C11.0077 20.0173 10.0281 20.4768 8.94391 20.7009C7.60868 20.9764 6.28816 20.8816 5.04287 20.3174C2.94721 19.3681 1.59317 17.7696 1.13855 15.4973C0.736263 13.4859 1.21623 11.656 2.4975 10.0517C3.45089 8.85793 4.70681 8.13348 6.17532 7.75736C6.20803 7.74919 6.24074 7.73447 6.27426 7.73201C6.40427 7.7222 6.45087 7.64371 6.48685 7.52515C6.75995 6.62654 7.19903 5.81869 7.82781 5.11714C8.62421 4.22671 9.59068 3.59303 10.7403 3.27251C13.0167 2.63719 15.0567 3.11634 16.8286 4.67234C17.9684 5.67315 18.6078 6.96014 18.8368 8.45319C18.858 8.58974 18.9046 8.66333 19.0395 8.71893C20.2775 9.22833 21.2824 10.0313 22.0027 11.1621C22.5792 12.0672 22.9054 13.0631 22.9823 14.1392C23.1074 15.8947 22.5677 17.4278 21.4385 18.7614C20.9504 19.3387 20.3797 19.8203 19.7092 20.1776C19.6732 20.1964 19.6372 20.2168 19.6004 20.2348C19.589 20.2397 19.5743 20.2373 19.5334 20.2397L19.5367 20.2414Z" fill="black"/>
</svg>
