<svg width="24" height="24" viewBox="0 0 24 24" fill="none" xmlns="http://www.w3.org/2000/svg">
<path d="M14.177 1C14.4437 1 14.698 1.05041 14.9397 1.15039C15.1814 1.25039 15.3941 1.39186 15.5774 1.5752L20.428 6.4248C20.6113 6.60811 20.7528 6.82089 20.8528 7.0625C20.9528 7.30414 21.0022 7.55856 21.0022 7.8252V19C21.0022 19.5499 20.8067 20.0205 20.4153 20.4121C20.0236 20.8038 19.5522 21 19.0022 21H7.0022C6.4522 21 5.98175 20.8038 5.59009 20.4121C5.19842 20.0204 5.0022 19.55 5.0022 19V17.499C5.00242 16.9469 5.45004 16.499 6.0022 16.499C6.5542 16.4992 7.00197 16.947 7.0022 17.499V19H19.0022V8H15.0022C14.7191 7.99995 14.4818 7.90425 14.2903 7.71289C14.0986 7.52122 14.0022 7.28333 14.0022 7V3H7.0022V5.50098L6.99634 5.60254C6.94533 6.10688 6.51996 6.5008 6.0022 6.50098C5.44998 6.50098 5.00232 6.05315 5.0022 5.50098V3C5.0022 2.45 5.19842 1.97956 5.59009 1.58789C5.98175 1.19623 6.4522 1.00001 7.0022 1H14.177Z" fill="#008C95"/>
<path d="M5.2422 12.8879C7.52352 12.3727 7.87689 12.0194 8.39205 9.73808C8.41565 9.63382 8.50846 9.55957 8.61571 9.55957C8.72296 9.55957 8.81577 9.63382 8.83937 9.73808C9.35476 12.0194 9.7079 12.3727 11.9892 12.8879C12.0937 12.9117 12.168 13.0043 12.168 13.1115C12.168 13.2188 12.0937 13.3113 11.9892 13.3352C9.7079 13.8506 9.35476 14.2039 8.83937 16.485C8.81577 16.5892 8.72296 16.6635 8.61571 16.6635C8.50846 16.6635 8.41565 16.5892 8.39205 16.485C7.87666 14.2039 7.52352 13.8506 5.2422 13.3352C5.1377 13.3113 5.06368 13.2188 5.06368 13.1115C5.06368 13.0043 5.13793 12.9117 5.2422 12.8879Z" fill="#008C95"/>
<path d="M3.17933 9.33458C4.39207 9.06074 4.56234 8.89047 4.83619 7.678C4.86002 7.5735 4.9526 7.49948 5.05985 7.49948C5.1671 7.49948 5.25968 7.5735 5.28351 7.678C5.55736 8.89047 5.72763 9.06074 6.94013 9.33458C7.04463 9.35841 7.11865 9.45099 7.11865 9.55824C7.11865 9.66548 7.04463 9.75806 6.94013 9.7819C5.72763 10.0557 5.55736 10.226 5.28351 11.4387C5.25968 11.543 5.1671 11.6172 5.05985 11.6172C4.9526 11.6172 4.86002 11.543 4.83619 11.4387C4.56234 10.226 4.39207 10.0557 3.17933 9.7819C3.07507 9.75806 3.00082 9.66548 3.00082 9.55824C3.00082 9.45099 3.07507 9.35841 3.17933 9.33458Z" fill="#008C95"/>
</svg>
