<svg width="24" height="24" viewBox="0 0 24 24" fill="none" xmlns="http://www.w3.org/2000/svg">
<path d="M13.9335 3C14.1705 3 14.3966 3.04537 14.6114 3.13535C14.8262 3.22535 15.0153 3.35268 15.1782 3.51768L19.4896 7.88232C19.6525 8.0473 19.7783 8.2388 19.8672 8.45625C19.9561 8.67373 20 8.9027 20 9.14268V19.2C20 19.6949 19.8263 20.1185 19.4783 20.4709C19.1302 20.8234 18.7112 21 18.2223 21H7.55623C7.06737 21 6.64922 20.8234 6.30109 20.4709C5.95296 20.1184 5.77855 19.695 5.77855 19.2V17.8491C5.77875 17.3522 6.17661 16.9491 6.66739 16.9491C7.15803 16.9493 7.55603 17.3523 7.55623 17.8491V19.2H18.2223V9.3H14.667C14.4154 9.29995 14.2044 9.21383 14.0342 9.0416C13.8638 8.8691 13.7781 8.655 13.7781 8.4V4.8H7.55623V7.05088L7.55102 7.14228C7.50568 7.59619 7.1276 7.95072 6.66739 7.95088C6.17655 7.95088 5.77866 7.54784 5.77855 7.05088V4.8C5.77855 4.305 5.95296 3.8816 6.30109 3.5291C6.64922 3.17661 7.06737 3.00001 7.55623 3H13.9335Z" fill="#0F8DDE"/>
<path d="M8.99105 10.7036C9.08627 10.7037 9.16886 10.7707 9.18982 10.8645C9.64788 12.9174 9.96166 13.2353 11.9892 13.6989C12.082 13.7204 12.1479 13.8038 12.148 13.9002C12.148 13.9967 12.082 14.08 11.9892 14.1015C9.96152 14.5653 9.64791 14.8839 9.18982 16.9368C9.16876 17.0304 9.08618 17.0967 8.99105 17.0968C8.89585 17.0968 8.81339 17.0305 8.79227 16.9368C8.33418 14.8839 8.01981 14.5653 5.99208 14.1015C5.89933 14.0799 5.83323 13.9966 5.83323 13.9002C5.83332 13.8038 5.89955 13.7204 5.99208 13.6989C8.01978 13.2353 8.33439 12.9175 8.79227 10.8645C8.81325 10.7706 8.89572 10.7036 8.99105 10.7036Z" fill="#0F8DDE"/>
<path d="M5.82976 8.85C5.92498 8.85 6.00723 8.91609 6.02854 9.00996C6.27194 10.1012 6.42382 10.255 7.50155 10.5015C7.59431 10.523 7.66039 10.6063 7.66039 10.7027C7.66026 10.7991 7.59428 10.8825 7.50155 10.904C6.42387 11.1505 6.27193 11.3033 6.02854 12.3946C6.00735 12.4885 5.92509 12.5555 5.82976 12.5555C5.73458 12.5553 5.65215 12.4884 5.63099 12.3946C5.38764 11.3036 5.23644 11.1504 4.15885 10.904C4.06626 10.8826 4.00013 10.7991 4 10.7027C4 10.6062 4.06617 10.5229 4.15885 10.5015C5.23665 10.255 5.38759 10.1011 5.63099 9.00996C5.65221 8.91612 5.73464 8.85016 5.82976 8.85Z" fill="#0F8DDE"/>
</svg>
