<svg width="20" height="20" viewBox="0 0 20 20" fill="none" xmlns="http://www.w3.org/2000/svg">
<g clip-path="url(#clip0_11118_11244)">
<mask id="mask0_11118_11244" style="mask-type:luminance" maskUnits="userSpaceOnUse" x="0" y="0" width="20" height="20">
<path d="M20 0H0V20H20V0Z" fill="white"/>
</mask>
<g mask="url(#mask0_11118_11244)">
<path d="M6.16667 11.3172C9.9 10.4755 10.475 9.89219 11.325 6.15885C11.3667 5.99219 11.5167 5.86719 11.6917 5.86719C11.8667 5.86719 12.0167 5.99219 12.0583 6.15885C12.9 9.89219 13.4833 10.4672 17.2167 11.3172C17.3917 11.3589 17.5083 11.5089 17.5083 11.6839C17.5083 11.8589 17.3833 12.0089 17.2167 12.0505C13.4833 12.8922 12.9083 13.4755 12.0583 17.2089C12.0167 17.3755 11.8667 17.5005 11.6917 17.5005C11.5167 17.5005 11.3667 17.3755 11.325 17.2089C10.4833 13.4755 9.9 12.9005 6.16667 12.0505C5.99167 12.0089 5.875 11.8589 5.875 11.6839C5.875 11.5089 6 11.3589 6.16667 11.3172Z" fill="#FFC845"/>
<path d="M2.79167 5.5C4.775 5.05 5.05833 4.775 5.5 2.79167C5.54167 2.61667 5.69167 2.5 5.86667 2.5C6.04167 2.5 6.19167 2.625 6.23333 2.79167C6.68333 4.775 6.95833 5.05833 8.94167 5.5C9.11667 5.54167 9.23333 5.69167 9.23333 5.86667C9.23333 6.04167 9.10833 6.19167 8.94167 6.23333C6.95833 6.68333 6.675 6.95833 6.23333 8.94167C6.19167 9.10833 6.04167 9.23333 5.86667 9.23333C5.69167 9.23333 5.54167 9.10833 5.5 8.94167C5.05 6.95833 4.775 6.675 2.79167 6.23333C2.625 6.19167 2.5 6.04167 2.5 5.86667C2.5 5.69167 2.625 5.54167 2.79167 5.5Z" fill="#FFC845"/>
</g>
</g>
<defs>
<clipPath id="clip0_11118_11244">
<rect width="20" height="20" fill="white"/>
</clipPath>
</defs>
</svg>
