<svg width="15" height="15" viewBox="0 0 15 15" fill="none" xmlns="http://www.w3.org/2000/svg">
<g clip-path="url(#clip0_281_8705)">
<path d="M7.5 15C11.6421 15 15 11.6421 15 7.5C15 3.35786 11.6421 0 7.5 0C3.35786 0 0 3.35786 0 7.5C0 11.6421 3.35786 15 7.5 15Z" fill="#D9D9D6"/>
<path d="M7.49 11.1002C7.4 11.1002 7.32 11.0802 7.25 11.0502C7.18 11.0202 7.1 10.9702 7.03 10.9002L3.17 7.04023C3.05 6.91023 3 6.75023 3 6.55023C3 6.35023 3.07 6.20023 3.18 6.08023C3.32 5.94023 3.48 5.88023 3.66 5.90023C3.84 5.92023 3.99 5.99023 4.12 6.10023L7.49 9.47023L10.86 6.10023C10.98 5.98023 11.14 5.92023 11.34 5.91023C11.54 5.90023 11.7 5.96023 11.82 6.10023C11.96 6.22023 12.02 6.37023 12 6.56023C11.98 6.75023 11.91 6.91023 11.8 7.06023L7.96 10.9002C7.88 10.9602 7.81 11.0102 7.74 11.0502C7.67 11.0802 7.59 11.1002 7.5 11.1002H7.49Z" fill="#53565A"/>
</g>
<defs>
<clipPath id="clip0_281_8705">
<rect width="15" height="15" fill="white"/>
</clipPath>
</defs>
</svg>
